<mxfile host="app.diagrams.net" modified="2023-12-02T20:44:09.552Z" agent="Mozilla/5.0 (Windows NT 10.0; Win64; x64; rv:120.0) Gecko/20100101 Firefox/120.0" etag="vYel36jFG2gY3AuUeaPk" version="22.1.5" type="google">
  <diagram name="Page-1" id="c7488fd3-1785-93aa-aadb-54a6760d102a">
    <mxGraphModel grid="1" page="1" gridSize="10" guides="1" tooltips="1" connect="1" arrows="1" fold="1" pageScale="1" pageWidth="1100" pageHeight="850" background="none" math="0" shadow="0">
      <root>
        <mxCell id="0" />
        <mxCell id="1" parent="0" />
        <mxCell id="oQXrgViFSVfC2OIrRTSH-1" value="Off" style="rounded=1;whiteSpace=wrap;html=1;" vertex="1" parent="1">
          <mxGeometry x="10" y="130" width="120" height="60" as="geometry" />
        </mxCell>
        <mxCell id="oQXrgViFSVfC2OIrRTSH-2" value="Perform Self Test" style="rounded=1;whiteSpace=wrap;html=1;" vertex="1" parent="1">
          <mxGeometry x="280" y="130" width="120" height="60" as="geometry" />
        </mxCell>
        <mxCell id="oQXrgViFSVfC2OIrRTSH-3" value="" style="endArrow=classic;html=1;rounded=0;exitX=1;exitY=0.5;exitDx=0;exitDy=0;entryX=0;entryY=0.5;entryDx=0;entryDy=0;" edge="1" parent="1" source="oQXrgViFSVfC2OIrRTSH-1" target="oQXrgViFSVfC2OIrRTSH-2">
          <mxGeometry width="50" height="50" relative="1" as="geometry">
            <mxPoint x="260" y="150" as="sourcePoint" />
            <mxPoint x="130" y="150" as="targetPoint" />
          </mxGeometry>
        </mxCell>
        <mxCell id="oQXrgViFSVfC2OIrRTSH-4" value="Press Power Button" style="edgeLabel;html=1;align=center;verticalAlign=middle;resizable=0;points=[];" connectable="0" vertex="1" parent="oQXrgViFSVfC2OIrRTSH-3">
          <mxGeometry x="-0.1194" y="-3" relative="1" as="geometry">
            <mxPoint x="4" y="-13" as="offset" />
          </mxGeometry>
        </mxCell>
        <mxCell id="oQXrgViFSVfC2OIrRTSH-5" value="&lt;div&gt;UNIT OK&lt;/div&gt;&lt;div&gt;place electrodes&lt;/div&gt;" style="rounded=1;whiteSpace=wrap;html=1;" vertex="1" parent="1">
          <mxGeometry x="505" y="190" width="120" height="60" as="geometry" />
        </mxCell>
        <mxCell id="oQXrgViFSVfC2OIrRTSH-6" value="UNIT NOT OK" style="rounded=1;whiteSpace=wrap;html=1;" vertex="1" parent="1">
          <mxGeometry x="505" y="60" width="120" height="60" as="geometry" />
        </mxCell>
        <mxCell id="oQXrgViFSVfC2OIrRTSH-7" style="edgeStyle=orthogonalEdgeStyle;rounded=0;orthogonalLoop=1;jettySize=auto;html=1;exitX=1;exitY=0.5;exitDx=0;exitDy=0;entryX=0;entryY=0.5;entryDx=0;entryDy=0;" edge="1" parent="1" source="oQXrgViFSVfC2OIrRTSH-2" target="oQXrgViFSVfC2OIrRTSH-6">
          <mxGeometry relative="1" as="geometry">
            <mxPoint x="400" y="161" as="sourcePoint" />
            <mxPoint x="540" y="30" as="targetPoint" />
            <Array as="points">
              <mxPoint x="400" y="150" />
              <mxPoint x="453" y="150" />
              <mxPoint x="453" y="90" />
            </Array>
          </mxGeometry>
        </mxCell>
        <mxCell id="oQXrgViFSVfC2OIrRTSH-11" value="&lt;div&gt;Fail&lt;/div&gt;" style="edgeLabel;html=1;align=center;verticalAlign=middle;resizable=0;points=[];" vertex="1" connectable="0" parent="oQXrgViFSVfC2OIrRTSH-7">
          <mxGeometry x="-0.0324" y="-1" relative="1" as="geometry">
            <mxPoint x="16" y="-28" as="offset" />
          </mxGeometry>
        </mxCell>
        <mxCell id="oQXrgViFSVfC2OIrRTSH-8" style="edgeStyle=orthogonalEdgeStyle;rounded=0;orthogonalLoop=1;jettySize=auto;html=1;exitX=1;exitY=0.5;exitDx=0;exitDy=0;entryX=0;entryY=0.5;entryDx=0;entryDy=0;" edge="1" parent="1" target="oQXrgViFSVfC2OIrRTSH-5">
          <mxGeometry relative="1" as="geometry">
            <mxPoint x="400" y="160" as="sourcePoint" />
            <mxPoint x="505" y="90" as="targetPoint" />
            <Array as="points">
              <mxPoint x="400" y="170" />
              <mxPoint x="453" y="170" />
              <mxPoint x="453" y="220" />
            </Array>
          </mxGeometry>
        </mxCell>
        <mxCell id="oQXrgViFSVfC2OIrRTSH-12" value="&lt;div&gt;Pass&lt;/div&gt;" style="edgeLabel;html=1;align=center;verticalAlign=middle;resizable=0;points=[];" vertex="1" connectable="0" parent="oQXrgViFSVfC2OIrRTSH-8">
          <mxGeometry x="0.0586" y="-3" relative="1" as="geometry">
            <mxPoint x="20" y="16" as="offset" />
          </mxGeometry>
        </mxCell>
        <mxCell id="oQXrgViFSVfC2OIrRTSH-9" value="" style="endArrow=classic;html=1;rounded=0;exitX=0;exitY=0.25;exitDx=0;exitDy=0;entryX=0.75;entryY=0;entryDx=0;entryDy=0;" edge="1" parent="1" source="oQXrgViFSVfC2OIrRTSH-6" target="oQXrgViFSVfC2OIrRTSH-1">
          <mxGeometry width="50" height="50" relative="1" as="geometry">
            <mxPoint x="250" y="80" as="sourcePoint" />
            <mxPoint x="120" y="70" as="targetPoint" />
            <Array as="points">
              <mxPoint x="100" y="75" />
            </Array>
          </mxGeometry>
        </mxCell>
        <mxCell id="oQXrgViFSVfC2OIrRTSH-10" value="Press Power Button" style="edgeLabel;html=1;align=center;verticalAlign=middle;resizable=0;points=[];" vertex="1" connectable="0" parent="oQXrgViFSVfC2OIrRTSH-9">
          <mxGeometry x="0.1333" y="-1" relative="1" as="geometry">
            <mxPoint x="16" y="-14" as="offset" />
          </mxGeometry>
        </mxCell>
        <mxCell id="XMkBgeXZ8olXlHiYZSZ3-10" style="edgeStyle=orthogonalEdgeStyle;rounded=0;orthogonalLoop=1;jettySize=auto;html=1;exitX=0;exitY=0.5;exitDx=0;exitDy=0;entryX=1;entryY=0.5;entryDx=0;entryDy=0;" edge="1" parent="1" source="oQXrgViFSVfC2OIrRTSH-13" target="XMkBgeXZ8olXlHiYZSZ3-9">
          <mxGeometry relative="1" as="geometry" />
        </mxCell>
        <mxCell id="XMkBgeXZ8olXlHiYZSZ3-11" value="Finish CPR" style="edgeLabel;html=1;align=center;verticalAlign=middle;resizable=0;points=[];" connectable="0" vertex="1" parent="XMkBgeXZ8olXlHiYZSZ3-10">
          <mxGeometry x="0.2657" y="-1" relative="1" as="geometry">
            <mxPoint x="13" y="-9" as="offset" />
          </mxGeometry>
        </mxCell>
        <mxCell id="XMkBgeXZ8olXlHiYZSZ3-16" style="edgeStyle=orthogonalEdgeStyle;rounded=0;orthogonalLoop=1;jettySize=auto;html=1;exitX=0.5;exitY=1;exitDx=0;exitDy=0;entryX=0.5;entryY=0;entryDx=0;entryDy=0;" edge="1" parent="1" source="oQXrgViFSVfC2OIrRTSH-13" target="XMkBgeXZ8olXlHiYZSZ3-15">
          <mxGeometry relative="1" as="geometry" />
        </mxCell>
        <mxCell id="XMkBgeXZ8olXlHiYZSZ3-17" value="Start compressions" style="edgeLabel;html=1;align=center;verticalAlign=middle;resizable=0;points=[];" connectable="0" vertex="1" parent="XMkBgeXZ8olXlHiYZSZ3-16">
          <mxGeometry x="-0.2167" y="-2" relative="1" as="geometry">
            <mxPoint x="-48" y="4" as="offset" />
          </mxGeometry>
        </mxCell>
        <mxCell id="oQXrgViFSVfC2OIrRTSH-13" value="Begin CPR" style="rounded=1;whiteSpace=wrap;html=1;" vertex="1" parent="1">
          <mxGeometry x="530" y="360" width="120" height="60" as="geometry" />
        </mxCell>
        <mxCell id="oQXrgViFSVfC2OIrRTSH-14" value="" style="endArrow=classic;html=1;rounded=0;entryX=0.25;entryY=0;entryDx=0;entryDy=0;exitX=1;exitY=0.75;exitDx=0;exitDy=0;" edge="1" parent="1" source="oQXrgViFSVfC2OIrRTSH-5" target="XMkBgeXZ8olXlHiYZSZ3-1">
          <mxGeometry width="50" height="50" relative="1" as="geometry">
            <mxPoint x="625" y="230" as="sourcePoint" />
            <mxPoint x="740" y="280" as="targetPoint" />
            <Array as="points">
              <mxPoint x="670" y="235" />
              <mxPoint x="750" y="235" />
            </Array>
          </mxGeometry>
        </mxCell>
        <mxCell id="oQXrgViFSVfC2OIrRTSH-15" value="[Place Electrodes PASS]" style="edgeLabel;html=1;align=center;verticalAlign=middle;resizable=0;points=[];" connectable="0" vertex="1" parent="oQXrgViFSVfC2OIrRTSH-14">
          <mxGeometry x="-0.1194" y="-3" relative="1" as="geometry">
            <mxPoint x="-55" y="22" as="offset" />
          </mxGeometry>
        </mxCell>
        <mxCell id="oQXrgViFSVfC2OIrRTSH-26" style="edgeStyle=orthogonalEdgeStyle;rounded=0;orthogonalLoop=1;jettySize=auto;html=1;exitX=0.585;exitY=1.008;exitDx=0;exitDy=0;entryX=0.5;entryY=0;entryDx=0;entryDy=0;exitPerimeter=0;" edge="1" parent="1" source="oQXrgViFSVfC2OIrRTSH-17" target="XMkBgeXZ8olXlHiYZSZ3-1">
          <mxGeometry relative="1" as="geometry">
            <Array as="points" />
          </mxGeometry>
        </mxCell>
        <mxCell id="oQXrgViFSVfC2OIrRTSH-28" value="[Place Electrodes PASS]" style="edgeLabel;html=1;align=center;verticalAlign=middle;resizable=0;points=[];" vertex="1" connectable="0" parent="oQXrgViFSVfC2OIrRTSH-26">
          <mxGeometry x="-0.2242" relative="1" as="geometry">
            <mxPoint x="70" y="-7" as="offset" />
          </mxGeometry>
        </mxCell>
        <mxCell id="oQXrgViFSVfC2OIrRTSH-17" value="&lt;div&gt;Try placing&amp;nbsp;&lt;/div&gt;&lt;div&gt;pads again&lt;/div&gt;" style="rounded=1;whiteSpace=wrap;html=1;" vertex="1" parent="1">
          <mxGeometry x="710" y="160" width="120" height="60" as="geometry" />
        </mxCell>
        <mxCell id="oQXrgViFSVfC2OIrRTSH-18" value="" style="endArrow=classic;html=1;rounded=0;entryX=0;entryY=0.75;entryDx=0;entryDy=0;exitX=1;exitY=0.25;exitDx=0;exitDy=0;" edge="1" parent="1" source="oQXrgViFSVfC2OIrRTSH-5" target="oQXrgViFSVfC2OIrRTSH-17">
          <mxGeometry width="50" height="50" relative="1" as="geometry">
            <mxPoint x="635" y="245" as="sourcePoint" />
            <mxPoint x="720" y="265" as="targetPoint" />
            <Array as="points">
              <mxPoint x="670" y="205" />
            </Array>
          </mxGeometry>
        </mxCell>
        <mxCell id="oQXrgViFSVfC2OIrRTSH-19" value="[Place Electrodes FAIL]" style="edgeLabel;html=1;align=center;verticalAlign=middle;resizable=0;points=[];" connectable="0" vertex="1" parent="oQXrgViFSVfC2OIrRTSH-18">
          <mxGeometry x="-0.1194" y="-3" relative="1" as="geometry">
            <mxPoint x="-27" y="-28" as="offset" />
          </mxGeometry>
        </mxCell>
        <mxCell id="oQXrgViFSVfC2OIrRTSH-24" style="edgeStyle=orthogonalEdgeStyle;rounded=0;orthogonalLoop=1;jettySize=auto;html=1;exitX=0.5;exitY=0;exitDx=0;exitDy=0;entryX=1;entryY=0.5;entryDx=0;entryDy=0;" edge="1" parent="1" source="oQXrgViFSVfC2OIrRTSH-17" target="oQXrgViFSVfC2OIrRTSH-17">
          <mxGeometry relative="1" as="geometry" />
        </mxCell>
        <mxCell id="oQXrgViFSVfC2OIrRTSH-25" value="[Place Electrodes FAIL]" style="edgeLabel;html=1;align=center;verticalAlign=middle;resizable=0;points=[];" vertex="1" connectable="0" parent="oQXrgViFSVfC2OIrRTSH-24">
          <mxGeometry x="-0.1776" y="2" relative="1" as="geometry">
            <mxPoint x="-10" y="-8" as="offset" />
          </mxGeometry>
        </mxCell>
        <mxCell id="XMkBgeXZ8olXlHiYZSZ3-3" style="edgeStyle=orthogonalEdgeStyle;rounded=0;orthogonalLoop=1;jettySize=auto;html=1;entryX=0.5;entryY=0;entryDx=0;entryDy=0;exitX=1;exitY=0.75;exitDx=0;exitDy=0;" edge="1" parent="1" source="XMkBgeXZ8olXlHiYZSZ3-1" target="XMkBgeXZ8olXlHiYZSZ3-2">
          <mxGeometry relative="1" as="geometry">
            <mxPoint x="780" y="330" as="sourcePoint" />
          </mxGeometry>
        </mxCell>
        <mxCell id="XMkBgeXZ8olXlHiYZSZ3-6" value="[Shockable Heart Rhythm]" style="edgeLabel;html=1;align=center;verticalAlign=middle;resizable=0;points=[];" connectable="0" vertex="1" parent="XMkBgeXZ8olXlHiYZSZ3-3">
          <mxGeometry x="-0.2762" relative="1" as="geometry">
            <mxPoint x="18" y="-15" as="offset" />
          </mxGeometry>
        </mxCell>
        <mxCell id="XMkBgeXZ8olXlHiYZSZ3-5" style="edgeStyle=orthogonalEdgeStyle;rounded=0;orthogonalLoop=1;jettySize=auto;html=1;exitX=0.25;exitY=1;exitDx=0;exitDy=0;entryX=1;entryY=0.5;entryDx=0;entryDy=0;" edge="1" parent="1" source="XMkBgeXZ8olXlHiYZSZ3-1" target="oQXrgViFSVfC2OIrRTSH-13">
          <mxGeometry relative="1" as="geometry">
            <Array as="points">
              <mxPoint x="750" y="350" />
              <mxPoint x="680" y="350" />
              <mxPoint x="680" y="390" />
            </Array>
          </mxGeometry>
        </mxCell>
        <mxCell id="XMkBgeXZ8olXlHiYZSZ3-1" value="Begin Heart Rhythm Analysis" style="rounded=1;whiteSpace=wrap;html=1;" vertex="1" parent="1">
          <mxGeometry x="720" y="270" width="120" height="60" as="geometry" />
        </mxCell>
        <mxCell id="XMkBgeXZ8olXlHiYZSZ3-7" style="edgeStyle=orthogonalEdgeStyle;rounded=0;orthogonalLoop=1;jettySize=auto;html=1;exitX=0;exitY=0.75;exitDx=0;exitDy=0;entryX=1;entryY=0.75;entryDx=0;entryDy=0;" edge="1" parent="1" source="XMkBgeXZ8olXlHiYZSZ3-32" target="oQXrgViFSVfC2OIrRTSH-13">
          <mxGeometry relative="1" as="geometry" />
        </mxCell>
        <mxCell id="XMkBgeXZ8olXlHiYZSZ3-33" style="edgeStyle=orthogonalEdgeStyle;rounded=0;orthogonalLoop=1;jettySize=auto;html=1;exitX=0;exitY=0.5;exitDx=0;exitDy=0;entryX=1;entryY=0.5;entryDx=0;entryDy=0;" edge="1" parent="1" source="XMkBgeXZ8olXlHiYZSZ3-2" target="XMkBgeXZ8olXlHiYZSZ3-32">
          <mxGeometry relative="1" as="geometry" />
        </mxCell>
        <mxCell id="XMkBgeXZ8olXlHiYZSZ3-34" value="Press Shock Button" style="edgeLabel;html=1;align=center;verticalAlign=middle;resizable=0;points=[];" connectable="0" vertex="1" parent="XMkBgeXZ8olXlHiYZSZ3-33">
          <mxGeometry x="-0.2982" y="1" relative="1" as="geometry">
            <mxPoint x="-15" y="-11" as="offset" />
          </mxGeometry>
        </mxCell>
        <mxCell id="XMkBgeXZ8olXlHiYZSZ3-2" value="Flashing Shock Button" style="rounded=1;whiteSpace=wrap;html=1;" vertex="1" parent="1">
          <mxGeometry x="970" y="360" width="120" height="60" as="geometry" />
        </mxCell>
        <mxCell id="XMkBgeXZ8olXlHiYZSZ3-8" value="[No Shockable Heart Rhythm]" style="edgeLabel;html=1;align=center;verticalAlign=middle;resizable=0;points=[];" connectable="0" vertex="1" parent="1">
          <mxGeometry x="670" y="340.0023809523807" as="geometry" />
        </mxCell>
        <mxCell id="XMkBgeXZ8olXlHiYZSZ3-28" style="edgeStyle=orthogonalEdgeStyle;rounded=0;orthogonalLoop=1;jettySize=auto;html=1;exitX=0;exitY=0.5;exitDx=0;exitDy=0;" edge="1" parent="1" source="XMkBgeXZ8olXlHiYZSZ3-9">
          <mxGeometry relative="1" as="geometry">
            <mxPoint x="200" y="390.4000000000001" as="targetPoint" />
          </mxGeometry>
        </mxCell>
        <mxCell id="XMkBgeXZ8olXlHiYZSZ3-9" value="Await EMS" style="rounded=1;whiteSpace=wrap;html=1;" vertex="1" parent="1">
          <mxGeometry x="310" y="360" width="120" height="60" as="geometry" />
        </mxCell>
        <mxCell id="XMkBgeXZ8olXlHiYZSZ3-22" style="edgeStyle=orthogonalEdgeStyle;rounded=0;orthogonalLoop=1;jettySize=auto;html=1;exitX=0.5;exitY=1;exitDx=0;exitDy=0;entryX=0.5;entryY=0;entryDx=0;entryDy=0;" edge="1" parent="1" source="XMkBgeXZ8olXlHiYZSZ3-15" target="XMkBgeXZ8olXlHiYZSZ3-21">
          <mxGeometry relative="1" as="geometry" />
        </mxCell>
        <mxCell id="XMkBgeXZ8olXlHiYZSZ3-23" value="[iterations &amp;gt; 0]" style="edgeLabel;html=1;align=center;verticalAlign=middle;resizable=0;points=[];" connectable="0" vertex="1" parent="XMkBgeXZ8olXlHiYZSZ3-22">
          <mxGeometry x="-0.0762" relative="1" as="geometry">
            <mxPoint x="40" as="offset" />
          </mxGeometry>
        </mxCell>
        <mxCell id="XMkBgeXZ8olXlHiYZSZ3-24" style="edgeStyle=orthogonalEdgeStyle;rounded=0;orthogonalLoop=1;jettySize=auto;html=1;exitX=0.25;exitY=1;exitDx=0;exitDy=0;entryX=0.75;entryY=1;entryDx=0;entryDy=0;" edge="1" parent="1" source="XMkBgeXZ8olXlHiYZSZ3-15" target="XMkBgeXZ8olXlHiYZSZ3-9">
          <mxGeometry relative="1" as="geometry" />
        </mxCell>
        <mxCell id="XMkBgeXZ8olXlHiYZSZ3-15" value="Performing compressions" style="rounded=1;whiteSpace=wrap;html=1;" vertex="1" parent="1">
          <mxGeometry x="530" y="460" width="120" height="60" as="geometry" />
        </mxCell>
        <mxCell id="XMkBgeXZ8olXlHiYZSZ3-26" style="edgeStyle=orthogonalEdgeStyle;rounded=0;orthogonalLoop=1;jettySize=auto;html=1;exitX=1;exitY=0.5;exitDx=0;exitDy=0;" edge="1" parent="1" source="XMkBgeXZ8olXlHiYZSZ3-21">
          <mxGeometry relative="1" as="geometry">
            <mxPoint x="650" y="510" as="targetPoint" />
            <Array as="points">
              <mxPoint x="670" y="580" />
              <mxPoint x="670" y="510" />
              <mxPoint x="650" y="510" />
            </Array>
          </mxGeometry>
        </mxCell>
        <mxCell id="XMkBgeXZ8olXlHiYZSZ3-27" value="(iterations - -)" style="edgeLabel;html=1;align=center;verticalAlign=middle;resizable=0;points=[];rotation=90;" connectable="0" vertex="1" parent="XMkBgeXZ8olXlHiYZSZ3-26">
          <mxGeometry x="0.2554" y="1" relative="1" as="geometry">
            <mxPoint x="11" y="12" as="offset" />
          </mxGeometry>
        </mxCell>
        <mxCell id="XMkBgeXZ8olXlHiYZSZ3-21" value="Continue compressions" style="rounded=1;whiteSpace=wrap;html=1;" vertex="1" parent="1">
          <mxGeometry x="530" y="550" width="120" height="60" as="geometry" />
        </mxCell>
        <mxCell id="XMkBgeXZ8olXlHiYZSZ3-25" value="[!(iterations &amp;gt; 0)]" style="edgeLabel;html=1;align=center;verticalAlign=middle;resizable=0;points=[];" connectable="0" vertex="1" parent="1">
          <mxGeometry x="510" y="530.0042857142857" as="geometry" />
        </mxCell>
        <mxCell id="XMkBgeXZ8olXlHiYZSZ3-30" style="edgeStyle=orthogonalEdgeStyle;rounded=0;orthogonalLoop=1;jettySize=auto;html=1;exitX=0.5;exitY=1;exitDx=0;exitDy=0;" edge="1" parent="1" source="XMkBgeXZ8olXlHiYZSZ3-29" target="oQXrgViFSVfC2OIrRTSH-1">
          <mxGeometry relative="1" as="geometry" />
        </mxCell>
        <mxCell id="XMkBgeXZ8olXlHiYZSZ3-29" value="" style="ellipse;whiteSpace=wrap;html=1;aspect=fixed;fillColor=#FFFFFF;" vertex="1" parent="1">
          <mxGeometry x="50" y="10" width="40" height="40" as="geometry" />
        </mxCell>
        <mxCell id="XMkBgeXZ8olXlHiYZSZ3-31" value="" style="ellipse;shape=doubleEllipse;whiteSpace=wrap;html=1;aspect=fixed;" vertex="1" parent="1">
          <mxGeometry x="150" y="365" width="50" height="50" as="geometry" />
        </mxCell>
        <mxCell id="XMkBgeXZ8olXlHiYZSZ3-32" value="Shock Patient" style="rounded=1;whiteSpace=wrap;html=1;" vertex="1" parent="1">
          <mxGeometry x="740" y="360" width="120" height="60" as="geometry" />
        </mxCell>
      </root>
    </mxGraphModel>
  </diagram>
</mxfile>
